<?xml version="1.0" encoding="utf-8"?>
<!-- Generator: Adobe Illustrator 25.2.1, SVG Export Plug-In . SVG Version: 6.00 Build 0)  -->
<svg version="1.1" id="piktogram" xmlns="http://www.w3.org/2000/svg" xmlns:xlink="http://www.w3.org/1999/xlink" x="0px" y="0px"
	 viewBox="0 0 19.84 19.84" style="enable-background:new 0 0 19.84 19.84;" xml:space="preserve">
<style type="text/css">
	.st0{fill:none;stroke:#B12522;stroke-width:0.5;stroke-miterlimit:10;}
	.st1{fill:#010202;stroke:#000000;stroke-miterlimit:10;}
</style>
<circle class="st0" cx="-180.38" cy="48.85" r="1.13"/>
<line class="st0" x1="-180.38" y1="47.72" x2="-180.38" y2="47.07"/>
<line class="st0" x1="-179.16" y1="48.85" x2="-178.5" y2="48.85"/>
<line class="st0" x1="-180.25" y1="50.13" x2="-180.25" y2="50.76"/>
<line class="st0" x1="-181.5" y1="48.85" x2="-182.14" y2="48.85"/>
<path class="st1" d="M16.21,6.65H3.14c-0.61,0-1.1-0.5-1.1-1.1V4.59c0-0.61,0.5-1.1,1.1-1.1h13.07c0.61,0,1.1,0.5,1.1,1.1v0.96
	C17.31,6.15,16.81,6.65,16.21,6.65z"/>
<path class="st1" d="M16.21,11.99H3.14c-0.61,0-1.1-0.5-1.1-1.1V9.93c0-0.61,0.5-1.1,1.1-1.1h13.07c0.61,0,1.1,0.5,1.1,1.1v0.96
	C17.31,11.5,16.81,11.99,16.21,11.99z"/>
<path class="st1" d="M16.46,17.34H3.39c-0.61,0-1.1-0.5-1.1-1.1v-0.96c0-0.61,0.5-1.1,1.1-1.1h13.07c0.61,0,1.1,0.5,1.1,1.1v0.96
	C17.56,16.84,17.06,17.34,16.46,17.34z"/>
</svg>
