<?xml version="1.0" encoding="utf-8"?>
<!-- Generator: Adobe Illustrator 25.2.1, SVG Export Plug-In . SVG Version: 6.00 Build 0)  -->
<svg version="1.1" id="piktogram" xmlns="http://www.w3.org/2000/svg" xmlns:xlink="http://www.w3.org/1999/xlink" x="0px" y="0px"
	 viewBox="0 0 19.84 19.84" style="enable-background:new 0 0 19.84 19.84;" xml:space="preserve">
<style type="text/css">
	.st0{stroke:#FFFDFD;stroke-width:0.5;stroke-miterlimit:10;}
	.st1{stroke:#FFFFFF;stroke-width:0.5;stroke-miterlimit:10;}
	.st2{stroke:#FFFFFF;stroke-width:0.25;stroke-miterlimit:10;}
	.st3{stroke:#EDEDED;stroke-width:0.5;stroke-miterlimit:10;}
	.st4{fill:none;stroke:#FFFFFF;stroke-width:0.5;stroke-miterlimit:10;}
	.st5{fill:none;stroke:#FFFFFF;stroke-width:0.25;stroke-miterlimit:10;}
</style>
<path class="st0" d="M16.76,17.73H3.26c0-4.5,0-9,0-13.5c4.5,0,9,0,13.5,0V17.73z"/>
<rect x="4.72" y="1.21" class="st1" width="1.79" height="6.04"/>
<rect x="7.69" y="1.21" class="st1" width="1.79" height="6.04"/>
<rect x="10.66" y="1.21" class="st1" width="1.79" height="6.04"/>
<rect x="13.48" y="1.21" class="st1" width="1.79" height="6.04"/>
<path class="st2" d="M6.86,14.26h-0.7c-0.77,0-1.4-0.63-1.4-1.4v-0.7c0-0.77,0.63-1.4,1.4-1.4h0.7c0.77,0,1.4,0.63,1.4,1.4v0.7
	C8.27,13.63,7.63,14.26,6.86,14.26z"/>
<line class="st3" x1="9.48" y1="11.83" x2="14.79" y2="11.83"/>
<line class="st4" x1="9.48" y1="13.1" x2="14.79" y2="13.1"/>
<path class="st5" d="M5.44,12.16c0.18,0.06,0.45,0.17,0.72,0.37c0.32,0.23,0.51,0.5,0.62,0.67"/>
<path class="st2" d="M9.27,9.74c-0.43,0.36-0.95,0.87-1.45,1.55c-0.55,0.75-0.89,1.46-1.11,2.01"/>
</svg>
